<?xml version="1.0" encoding="UTF-8"?>
<svg id="Layer_1" data-name="Layer 1" xmlns="http://www.w3.org/2000/svg" xmlns:xlink="http://www.w3.org/1999/xlink" viewBox="0 0 630 210">
  <defs>
    <style>
      .cls-1 {
        fill: url(#linear-gradient-4);
      }

      .cls-1, .cls-2, .cls-3, .cls-4, .cls-5, .cls-6, .cls-7, .cls-8, .cls-9, .cls-10, .cls-11, .cls-12 {
        stroke: #171414;
      }

      .cls-1, .cls-2, .cls-3, .cls-4, .cls-5, .cls-6, .cls-7, .cls-8, .cls-10, .cls-12 {
        stroke-miterlimit: 10;
      }

      .cls-2 {
        fill: url(#linear-gradient-2);
      }

      .cls-3 {
        fill: url(#linear-gradient-3);
      }

      .cls-4 {
        fill: url(#linear-gradient-5);
      }

      .cls-5, .cls-13 {
        fill: #fff;
      }

      .cls-6 {
        fill: #dde1e6;
      }

      .cls-7 {
        fill: #4589ff;
      }

      .cls-8 {
        fill: #0f62fe;
      }

      .cls-9 {
        fill: url(#New_Gradient_Swatch_copy_9);
      }

      .cls-9, .cls-11 {
        stroke-linecap: round;
        stroke-linejoin: round;
      }

      .cls-10 {
        fill: none;
      }

      .cls-11 {
        fill: url(#New_Gradient_Swatch_copy_9-2);
      }

      .cls-14 {
        fill: #f3f3f3;
      }

      .cls-14, .cls-15, .cls-16, .cls-13 {
        stroke-width: 0px;
      }

      .cls-15 {
        fill: #171414;
      }

      .cls-16 {
        fill: #d49bed;
      }

      .cls-12 {
        fill: url(#linear-gradient);
      }
    </style>
    <linearGradient id="linear-gradient" x1="1024.35" y1="46.54" x2="1072.12" y2="81.02" gradientTransform="translate(-794.97)" gradientUnits="userSpaceOnUse">
      <stop offset="0" stop-color="#82cfff"/>
      <stop offset=".92" stop-color="#e5f6ff"/>
    </linearGradient>
    <linearGradient id="linear-gradient-2" x1="415.11" y1="155.62" x2="434.52" y2="136.03" gradientUnits="userSpaceOnUse">
      <stop offset="0" stop-color="#d4bbff"/>
      <stop offset="1" stop-color="#fff"/>
    </linearGradient>
    <linearGradient id="New_Gradient_Swatch_copy_9" data-name="New Gradient Swatch copy 9" x1="1026.91" y1="163.01" x2="1064.08" y2="125.83" gradientTransform="translate(-794.97)" gradientUnits="userSpaceOnUse">
      <stop offset=".21" stop-color="#ba91ff"/>
      <stop offset=".79" stop-color="#ffabce"/>
    </linearGradient>
    <linearGradient id="linear-gradient-3" x1="393.6" y1="29.43" x2="376.94" y2="35.2" gradientTransform="translate(783.1 60.29) rotate(-180)" gradientUnits="userSpaceOnUse">
      <stop offset="0" stop-color="#c198fe"/>
      <stop offset="1" stop-color="#bae6ff"/>
    </linearGradient>
    <linearGradient id="New_Gradient_Swatch_copy_9-2" data-name="New Gradient Swatch copy 9" x1="379.91" y1="133.32" x2="403.18" y2="110.05" gradientTransform="translate(783.1 243.37) rotate(-180)" xlink:href="#New_Gradient_Swatch_copy_9"/>
    <linearGradient id="linear-gradient-4" x1="2801.74" y1="102.74" x2="2752.61" y2="119.76" gradientTransform="translate(3022.56) rotate(-180) scale(1 -1)" xlink:href="#linear-gradient-3"/>
    <linearGradient id="linear-gradient-5" x1="383.1" y1="169.59" x2="402.18" y2="183.36" gradientTransform="translate(792.65 23.05) rotate(135)" xlink:href="#linear-gradient"/>
  </defs>
  <rect class="cls-14" x="0" width="630" height="210"/>
  <g>
    <path class="cls-5" d="M322.66,162.96l-15.88-47.58c-2.05-6.24-7.29-10.9-13.72-12.23l-2.28-.47,1.35-.23c6.87-1.16,12.54-6.03,14.73-12.64l15.72-47.38c.71-2.16,1.78-4.13,3.15-5.84l-12.29-.04c-8.08-.02-15.25,5.16-17.76,12.84l-14.38,40.65c-2.19,6.59-7.81,11.43-14.64,12.63h-.13s.04,0,.06.01c0,0-.02,0-.03,0h.05c6.83,1.19,12.46,6.04,14.64,12.63l14.38,40.65c2.51,7.68,9.68,12.87,17.76,12.84l12.42-.05c-1.36-1.69-2.44-3.64-3.16-5.79Z"/>
    <g>
      <line class="cls-7" x1="413.73" y1="54" x2="318.63" y2="54"/>
      <line class="cls-7" x1="379.09" y1="80.86" x2="310.03" y2="80.86"/>
      <line class="cls-7" x1="375.5" y1="122.13" x2="309.4" y2="122.13"/>
      <line class="cls-7" x1="417.91" y1="147.43" x2="318.32" y2="147.43"/>
      <path class="cls-12" d="M271.81,47.63h-45.31c-1.82,0-3.12,1.49-3.12,3.3v19.9c0,1.82,1.49,3.3,3.3,3.3h45.13s.01,0,.02,0l3.28,3.28v-6.58s0-.01,0-.01v-19.89c0-1.82-1.49-3.3-3.3-3.3Z"/>
      <rect class="cls-8" x="364.96" y="69.83" width="21.5" height="21.5" rx="1.07" ry="1.07" transform="translate(751.43 161.16) rotate(180)"/>
      <circle class="cls-2" cx="423.12" cy="147.53" r="13.54"/>
      <path class="cls-6" d="M410.51,54.31c0,6.97,5.65,12.62,12.62,12.62,6.97,0,12.62-5.65,12.62-12.62,0-6.97-5.65-12.62-12.62-12.62s-12.62,5.65-12.62,12.62ZM418.34,54.31c0-2.64,2.14-4.79,4.79-4.79,2.64,0,4.79,2.14,4.79,4.79s-2.14,4.79-4.79,4.79c-2.64,0-4.79-2.14-4.79-4.79Z"/>
      <circle class="cls-15" cx="318.63" cy="54" r="1.25"/>
      <circle class="cls-15" cx="309.72" cy="80.79" r="1.25"/>
      <circle class="cls-15" cx="309.09" cy="121.99" r="1.25"/>
      <circle class="cls-15" cx="317.38" cy="147.43" r="1.25"/>
    </g>
    <path class="cls-13" d="M236.55,54.32c-4.18-.53-7.7,2.99-7.17,7.17.36,2.85,2.66,5.15,5.51,5.51,4.18.53,7.7-2.99,7.17-7.17-.36-2.85-2.66-5.15-5.51-5.51ZM235.72,64.77c-.38,0-.69-.31-.69-.69,0-.38.31-.69.69-.69s.69.31.69.69c0,.38-.31.69-.69.69ZM236.24,61.23v1.14h-1.03v-2.17h.92c.51,0,.99-.32,1.11-.81.18-.72-.36-1.36-1.05-1.36h-.69c-.6,0-1.08.49-1.08,1.08v.29h-1.03s0-.29,0-.29c0-1.17.95-2.11,2.11-2.11h.61c1.01,0,1.93.67,2.14,1.65.28,1.34-.72,2.54-2.01,2.57Z"/>
    <path class="cls-9" d="M271.81,129.89h-45.31c-1.82,0-3.12,1.49-3.12,3.3v19.9c0,1.82,1.49,3.3,3.3,3.3h45.13s.01,0,.02,0l3.28,3.28v-6.58s0-.01,0-.01v-19.89c0-1.82-1.49-3.3-3.3-3.3Z"/>
    <path class="cls-10" d="M390.04,29.63h-49.73c-8,0-15.1,5.11-17.63,12.7l-15.92,47.66c-2.53,7.58-9.63,12.7-17.63,12.7h-32.91"/>
    <rect class="cls-3" x="379.79" y="20" width="23.53" height="20.29" rx="6.87" ry="6.87" transform="translate(783.1 60.29) rotate(180)"/>
    <rect class="cls-11" x="374.36" y="111.6" width="34.38" height="20.17" rx="6.83" ry="6.83" transform="translate(783.1 243.37) rotate(180)"/>
    <path class="cls-10" d="M383.27,175.75h-42.94c-8,0-15.1-5.11-17.63-12.7l-15.92-47.66c-2.53-7.58-9.63-12.7-17.63-12.7h-32.91"/>
    <path class="cls-1" d="M197.73,84.74h60.23c2.41,0,4.15,1.97,4.15,4.39v26.45c0,2.41-1.97,4.39-4.39,4.39h-60s-.02,0-.03,0l-4.36,4.36v-8.75s0-.02,0-.02v-26.44c0-2.41,1.97-4.39,4.39-4.39Z"/>
    <path class="cls-13" d="M245.64,94.14c-4.24,0-7.67,3.44-7.67,7.67s3.44,7.67,7.67,7.67c4.24,0,7.67-3.44,7.67-7.67s-3.44-7.67-7.67-7.67ZM245.64,97.43c.45,0,.82.37.82.82,0,.45-.37.82-.82.82s-.82-.37-.82-.82c0-.45.37-.82.82-.82ZM247.83,106.27h-4.38v-1.23h1.58s0-3.15,0-3.15h-1.03v-1.23h2.26v4.38s1.58,0,1.58,0v1.23Z"/>
    <rect class="cls-4" x="381.43" y="165.57" width="20.24" height="20.24" transform="translate(544.19 576.79) rotate(-135)"/>
    <g>
      <path class="cls-13" d="M235.48,136.44c-3.53,0-6.39,2.86-6.39,6.39s2.86,6.39,6.39,6.39,6.39-2.86,6.39-6.39-2.86-6.39-6.39-6.39Z"/>
      <path class="cls-16" d="M234.21,145.11c-.11,0-.22-.04-.31-.13l-1.25-1.25c-.17-.17-.17-.45,0-.62.17-.17.45-.17.62,0l.94.94,3.13-3.13c.17-.17.45-.17.62,0,.17.17.17.45,0,.62l-3.44,3.44c-.09.09-.2.13-.31.13"/>
    </g>
  </g>
</svg>